<?xml version="1.0" encoding="utf-8"?>
<!-- Generator: Adobe Illustrator 28.1.0, SVG Export Plug-In . SVG Version: 6.00 Build 0)  -->
<svg version="1.1" xmlns="http://www.w3.org/2000/svg" xmlns:xlink="http://www.w3.org/1999/xlink" x="0px" y="0px"
	 viewBox="0 0 570.5 326.6" style="enable-background:new 0 0 570.5 326.6;" xml:space="preserve">
<style type="text/css">
	.st0{fill:none;}
</style>
<g id="レイヤー_1">
</g>
<g id="LOGO">
	<g>
		<g>
			<path class="st0" d="M282.1,12.1c-65.1,0-117.9,52.5-117.9,117.2S217,246.4,282.1,246.4c29.4,0,56.4-10.7,77-28.5l-36.2-36.2
				l8.7-8.7l36.4,36.4c19.8-21,31.9-49.2,31.9-80.2C399.9,64.6,347.1,12.1,282.1,12.1z"/>
			<path class="st0" d="M157.3,166.5L157.3,166.5c0.3,1.1,0.7,2.3,1.1,3.4C158,168.8,157.6,167.7,157.3,166.5z"/>
			<path class="st0" d="M48.2,173.3L48.2,173.3l111.4,0c0,0,0,0,0,0H48.2z"/>
			<path class="st0" d="M406.8,92L460,226l55.9-140.8H404.5C405.4,87.5,406.1,89.7,406.8,92z"/>
			<path d="M549.4,0.8L521,72.4H399L370.6,0.8h-12.8l8.3,20.9c1.6,4-3.1,7.5-6.5,4.9c-21.6-16.4-48.4-26.2-77.6-26.2
				c-63.9,0-116.8,46.8-126.7,108.1c-0.7,4.2-6.5,4.8-8.1,0.8L104.1,0.8L1.8,257.7h12.9l28.4-71.6h122l28.4,71.6h12.8l-8.3-20.9
				c-1.6-4,3.1-7.5,6.5-4.9c21.6,16.4,48.4,26.2,77.6,26.2c32.6,0,62.3-12.2,85-32.3l31,31l8.7-8.7l-30.8-30.8
				c17-18.2,28.8-41.4,33-67.2c0.7-4.2,6.5-4.9,8.1-0.9L460,257.7L562.3,0.8H549.4z M48.2,173.3L48.2,173.3L48.2,173.3l55.9-140.8
				l53.2,134c0,0,0,0,0,0l0,0c0.3,1.1,0.7,2.3,1.1,3.4c0.4,1.1,0.8,2.3,1.2,3.4h0c0,0,0,0,0,0H48.2z M368,209.5L331.6,173l-8.7,8.7
				l36.2,36.2c-20.7,17.7-47.6,28.5-77,28.5c-65.1,0-117.9-52.5-117.9-117.2S217,12.1,282.1,12.1s117.9,52.5,117.9,117.2
				C399.9,160.3,387.8,188.5,368,209.5z M460,226L406.8,92c-0.7-2.3-1.5-4.6-2.3-6.8h111.4L460,226z"/>
			<path d="M157.3,166.5C157.3,166.5,157.3,166.5,157.3,166.5l-53.2-134L48.2,173.3h0l55.9-140.8L157.3,166.5z"/>
			<path d="M159.5,173.3c-0.4-1.1-0.8-2.2-1.2-3.4C158.7,171,159.1,172.2,159.5,173.3L159.5,173.3z"/>
		</g>
		<g>
			<path d="M491,200.8c2.3-5.7,8.9-9,14.9-6.6c6,2.4,8.5,9.3,6.2,15.1c-2.3,5.8-9,8.9-14.8,6.6C491,213.3,488.9,206.2,491,200.8z
				 M510.3,208.5c1.9-4.7-0.3-10.3-5.2-12.3c-4.8-1.9-10.3,0.4-12.3,5.3c-1.8,4.6,0.3,10.3,5.3,12.3
				C502.9,215.7,508.4,213.2,510.3,208.5z"/>
			<path d="M498.4,183.4l2.1-5.2c1.1-2.7,2-4,2.8-4.7c2-1.9,4.8-2.3,7.3-1.3c3,1.2,5.1,4.5,3.8,8.6l9.9-2.7l-1,2.6l-12,3.2
				c1-2.6,1.4-3.5,1.5-4.5c0.3-2.5-1.2-4.4-3-5.1c-1.6-0.6-3.6-0.4-4.8,0.7c-1.1,1-1.7,2-2.4,3.7l-1.4,3.6l18.6,7.4l-0.8,2
				L498.4,183.4z"/>
			<path d="M525.7,147.1c5.9,2.9,7.4,9.7,5.4,14.7c-2.4,6.1-9.3,9-15,6.7c-5.3-2.1-8.8-8.6-6.2-15.2c2.2-5.4,7.3-7.4,9.7-7.3
				l-0.9,2.4c-2.5,0.4-5.5,2.3-6.9,5.7c-2.1,5.2,0.6,10.6,5.2,12.4c4.6,1.8,10.2-0.3,12.3-5.5c1.7-4.3-0.2-8.8-2.7-10.7l-4.6,11.4
				l-1.8-0.7L525.7,147.1z"/>
			<path d="M520.5,128.2l0.9-2.3l23.9-0.6l-0.9,2.2l-8.1,0.2l-3.8,9.5l5.7,5.7l-0.9,2.1L520.5,128.2z M531,135.8l3.2-7.9l-11,0.2
				L531,135.8z"/>
			<path d="M527.7,110.1l1.1-2.8l21.5-4.6l0-0.1l-17-6.8l0.8-2l20.4,8.2l-0.8,2L531,109l0,0.1l18,7.2l-0.8,2L527.7,110.1z"/>
			<path d="M538.3,83.6l0.8-2l20.4,8.2l-0.8,2L538.3,83.6z"/>
			<path d="M566,58.1c3.1,3.8,3.3,8.4,2,11.7c-2.3,5.7-8.8,8.9-14.8,6.5c-6-2.4-8.6-9.1-6.3-14.9c2.1-5.2,7.1-7.1,9.3-7.1l-0.9,2.3
				c-4.2,0.9-6.1,4.4-6.6,5.6c-1.9,4.8,0.8,10.3,5.3,12.1c4.8,1.9,10.3-0.7,12.1-5.1c0.4-1,1.6-4.4-1-8.7L566,58.1z"/>
		</g>
		<g>
			<path d="M147.2,292.6h3.9l15,34.9h-3.8l-5-11.7H141l-5.1,11.7h-3.6L147.2,292.6z M142.4,312.6h13.5l-6.7-16L142.4,312.6z"/>
			<path d="M214.6,292.6v21.7c0,2.5,0.4,4.9,1.2,6.3c2.1,3.9,5.6,4.3,7.2,4.3c1.7,0,5.1-0.4,7.2-4.3c0.8-1.5,1.2-3.8,1.2-6.3v-21.7
				h3.5v21.7c0,2.9-0.5,5.4-1.3,7.3c-2.4,5.2-7.3,6.5-10.6,6.5c-3.3,0-8.2-1.3-10.6-6.5c-0.8-1.8-1.3-4.3-1.3-7.3v-21.7H214.6z"/>
			<path d="M259.6,327.5h-3.9l-15-34.9h3.8l5,11.7h16.2l5.1-11.7h3.6L259.6,327.5z M264.5,307.5H251l6.7,16L264.5,307.5z"/>
			<path d="M415.3,327.5h-3.9l-15-34.9h3.8l5,11.7h16.2l5.1-11.7h3.6L415.3,327.5z M420.1,307.5h-13.5l6.7,16L420.1,307.5z"/>
			<path d="M302.9,292.6h3.9l15,34.9H318l-5-11.7h-16.2l-5.1,11.7H288L302.9,292.6z M298,312.6h13.5l-6.7-16L298,312.6z"/>
			<path d="M370.2,292.6v21.7c0,2.5,0.4,4.9,1.2,6.3c2.1,3.9,5.6,4.3,7.2,4.3c1.7,0,5.1-0.4,7.2-4.3c0.8-1.5,1.2-3.8,1.2-6.3v-21.7
				h3.5v21.7c0,2.9-0.5,5.4-1.3,7.3c-2.4,5.2-7.3,6.5-10.6,6.5c-3.3,0-8.2-1.3-10.6-6.5c-0.8-1.8-1.3-4.3-1.3-7.3v-21.7H370.2z"/>
			<path d="M203,309.1c0-9.6-8.1-17.5-18.2-17.5c-10,0-18.2,7.8-18.2,17.5c0,9.6,8.1,17.5,18.2,17.5c3.7,0,7.1-1.1,10-2.9l5.1,5.1
				l2.4-2.4l-4.8-4.8C200.9,318.4,203,314,203,309.1z M184.9,323.5c-8.2,0-14.8-6.4-14.8-14.4s6.6-14.4,14.8-14.4
				c8.2,0,14.8,6.4,14.8,14.4c0,4-1.7,7.6-4.4,10.2l-6-6l-2.4,2.4l5.7,5.7C190.4,322.8,187.7,323.5,184.9,323.5z"/>
			<path d="M358.7,309.1c0-9.6-8.1-17.5-18.2-17.5c-10,0-18.2,7.8-18.2,17.5c0,9.6,8.1,17.5,18.2,17.5c3.7,0,7.1-1.1,10-2.9l5.1,5.1
				l2.4-2.4l-4.8-4.8C356.6,318.4,358.7,314,358.7,309.1z M340.5,323.5c-8.2,0-14.8-6.4-14.8-14.4s6.6-14.4,14.8-14.4
				c8.2,0,14.8,6.4,14.8,14.4c0,4-1.7,7.6-4.4,10.2l-6-6l-2.4,2.4l5.7,5.7C346,322.8,343.4,323.5,340.5,323.5z"/>
		</g>
	</g>
</g>
</svg>
